<svg xmlns="http://www.w3.org/2000/svg" viewBox="0 0 200 200" width="200" height="200">
  <rect width="200" height="200" fill="white"/>
  <defs>
    <linearGradient id="teal" x1="0%" y1="0%" x2="100%" y2="100%">
      <stop offset="0%" style="stop-color:#008080"/>
      <stop offset="50%" style="stop-color:#20B2AA"/>
      <stop offset="100%" style="stop-color:#008080"/>
    </linearGradient>
  </defs>
  <path d="M60 40 Q40 60 50 80 Q60 100 45 120 Q30 140 55 160 Q80 180 100 160 Q120 140 105 120 Q90 100 110 80 Q130 60 150 80 Q170 100 150 130 Q130 160 90 150 Q50 140 60 40" 
        fill="none" stroke="url(#teal)" stroke-width="8" stroke-linecap="round"/>
  <path d="M100 50 Q90 70 100 90 Q110 110 100 130" 
        fill="none" stroke="url(#teal)" stroke-width="6" stroke-linecap="round"/>
</svg>